<svg id="SvgjsSvg1030" width="30" height="30" xmlns="http://www.w3.org/2000/svg" version="1.1" xmlns:xlink="http://www.w3.org/1999/xlink" xmlns:svgjs="http://svgjs.com/svgjs"><defs id="SvgjsDefs1031"></defs><g id="SvgjsG1032"><svg xmlns="http://www.w3.org/2000/svg" viewBox="0 0 100 100" width="30" height="30"><path d="M88.3 11.5c-.5-.4-1.1-.5-1.7-.4l-48 10c-.9.2-1.6 1-1.6 2v40.8c-2.7-3-6.6-4.8-11-4.8-8.3 0-15 6.7-15 15s6.7 15 15 15 15-6.7 15-15V38.6l44-9.2v24.4c-2.7-3-6.7-4.8-11-4.8-8.3 0-15 6.7-15 15s6.7 15 15 15 15-6.7 15-15V13c0-.6-.3-1.2-.7-1.5zM26 85c-6.1 0-11-4.9-11-11s4.9-11 11-11 11 4.9 11 11-4.9 11-11 11zm48-10c-6.1 0-11-4.9-11-11s4.9-11 11-11 11 4.9 11 11-4.9 11-11 11zm11-49.6l-44 9.2v-9.9l44-9.2v9.9z" fill="#828388" class="color000 svgShape"></path><path fill="#0000ff" d="M664-650v1684h-1784V-650H664m8-8h-1800v1700H672V-658z" class="color00F svgShape"></path></svg></g></svg>